<svg width="14551" height="3863" viewBox="0 0 14551 3863" fill="none" xmlns="http://www.w3.org/2000/svg">
<path d="M2586.8 1531.6C1651.2 2374 686.534 3242.53 443.067 3461.73C199.6 3680.93 0.266923 3860.8 0.000256119 3861.47C-0.266411 3862.13 207.734 3862.67 482.667 3862.67L965.734 3862.53L3089.07 1933.87C4256.93 873.201 5213.6 4.13439 5215.07 2.66772C5217.6 0.0012207 5215.2 0.0012207 4752.93 0.0012207H4752.8H4287.87L2586.8 1531.6Z" fill="#96120F"/>
<path d="M4381.07 1049.47C3745.6 1626.67 3223.07 2101.33 3219.87 2104.13L3214 2109.33H3733.2H4252.4L4885.73 1540.53C5456.4 1028 5540.27 952.134 5733.07 774.134C5865.87 651.601 6066.27 468.934 6261.07 292.801C6433.73 136.801 6577.2 6.93394 6579.73 4.53394L6584.4 0.000488281H6060.4H5536.4L4381.07 1049.47Z" fill="#092A5E"/>
<path d="M6601.46 273.6L6298.8 547.333L6820.66 547.733L7342.53 548L7642 278.4C7806.8 130 7943.6 6.79997 7946.26 4.39997L7951.06 0.133305L7427.6 -2.85804e-05H6904.13L6601.46 273.6Z" fill="#063F48"/>
<path d="M6045.34 776.935C5674.54 1119.33 5673.2 1120.53 5002 1723.47L4335.07 2322.67H3657.07H2978.94L2668.14 2604.93L2357.34 2887.33L3033.34 2888L3709.34 2888.67L3496.27 3081.33C3379.07 3187.33 3282 3275.07 3280.4 3276.27C3277.87 3278.4 3305.87 3278.53 3793.07 3278.67H4308.4L4495.07 3099.2L4681.74 2919.73L5615.07 2093.07C6128.4 1638.27 6549.47 1265.33 6550.8 1264.27C6552.94 1262.4 6553.07 1287.6 6553.07 1792.4V2322.67H6279.74H6006.4L5712 2587.6C5550.14 2733.33 5409.07 2860.4 5398.54 2870L5379.47 2887.33L5966.27 2887.73L6553.07 2888V3083.33V3278.67H6943.47H7333.74L7408.14 3211.87L7482.4 3144.93V1953.2V761.335H6772.4H6062.27L6045.34 776.935Z" fill="black"/>
<path d="M7924.8 878.801L7794.4 996.135V1566.4V2136.53L7798.13 2133.07C7800.13 2131.2 7916.93 2026 8057.73 1899.2L8313.73 1668.8L8314.13 2473.73L8314.4 3278.67H8501.6H8688.93L9537.07 2514.93C10003.5 2094.93 10385.7 1751.07 10386.4 1750.93C10387.3 1750.67 10387.7 2023.73 10387.7 2514.53V3278.67H10752.4H11117.1L11116.8 2020.27L11116.4 762.001L10782.7 761.601L10449.1 761.335L10431.3 777.201C10421.7 785.868 10095.7 1079.33 9707.07 1429.2L9000.4 2065.6L8999.73 1413.73L8999.07 762.001L8527.07 761.735L8055.07 761.335L7924.8 878.801Z" fill="black"/>
<path d="M11428.7 762.267C11428.1 762.667 11427.7 896.801 11427.7 1060.27V1357.33H12419.6H13411.3L13741.5 1060.27C13922.9 896.934 14071.6 762.934 14071.6 762.267C14071.7 761.067 11429.9 760.934 11428.7 762.267Z" fill="black"/>
<path d="M14079.7 1351.33L13609.7 1774.53L13027.7 1774.67L12445.7 1774.8L11936.8 2233.07L11427.9 2691.33L11427.7 2984.93V3278.67H11619.7H11811.6L12310.7 2829.33L12809.6 2380H13487.2H14164.8L14357.6 2206.4L14550.4 2032.8V1480.4C14550.4 1176.53 14550.3 928.001 14550.1 928.001C14549.9 928.001 14338.3 1118.53 14079.7 1351.33Z" fill="black"/>
<path d="M1707.07 3478.13C1479.07 3685.33 1290.67 3856.53 1288.4 3858.67L1284.4 3862.67H1799.07L2313.73 3862.53L2732.4 3483.87C2962.67 3275.6 3152 3104.27 3153.07 3103.2C3154.67 3101.6 3089.33 3101.33 2638.4 3101.33L2121.73 3101.47L1707.07 3478.13Z" fill="#092A5E"/>
<path d="M6971.07 3391.87C6952.14 3396.8 6939.34 3412.27 6939.34 3430.4C6939.34 3446.27 6947.07 3458.27 6962.14 3465.6C6970.14 3469.6 6972.14 3470 6982.4 3469.87C6991.34 3469.87 6995.07 3469.2 6999.87 3466.8C7015.74 3459.2 7024.4 3446 7024.27 3430C7024.27 3423.07 7023.47 3419.2 7021.2 3414.93C7013.6 3400.13 7000.8 3391.87 6984.67 3391.2C6979.34 3390.93 6973.34 3391.2 6971.07 3391.87Z" fill="black"/>
<path d="M8570.8 3393.07C8552.27 3399.73 8542.4 3412.93 8542.4 3431.2C8542.4 3446.13 8551.47 3459.6 8566.27 3466.53C8572.4 3469.33 8575.73 3470 8585.07 3470C8594.8 3470 8597.47 3469.47 8604 3466.27C8618.13 3459.33 8627.73 3444.93 8627.73 3430.67C8627.73 3416.53 8618 3402 8604.27 3395.2C8594.4 3390.4 8580.67 3389.47 8570.8 3393.07Z" fill="black"/>
<path d="M2837.73 3676.93C2726.26 3777.73 2634.93 3860.8 2634.66 3861.47C2634.4 3862.13 2854.26 3862.67 3148 3862.67L3661.73 3862.53L3863.06 3681.2C3973.86 3581.47 4065.86 3498.4 4067.73 3496.67L4071.06 3493.33L3555.73 3493.47H3040.4L2837.73 3676.93Z" fill="#063F48"/>
<path d="M4928 3497.33C4878.8 3503.6 4841.2 3526.67 4824.27 3561.2C4817.07 3576 4815.2 3585.07 4815.2 3605.33C4815.34 3621.2 4815.74 3624.67 4818.8 3634.27C4825.47 3654.27 4838.4 3669.2 4860 3681.73C4878.8 3692.53 4892.94 3697.2 4940.54 3708.4C4974.4 3716.4 4986.14 3721.07 4995.2 3729.87C5005.47 3739.87 5007.34 3750.13 5001.07 3762.67C4993.2 3778.13 4970.8 3786.8 4943.6 3784.8C4911.07 3782.53 4891.6 3767.2 4887.07 3740.27L4886.14 3734.67H4845.6H4804.94L4805.74 3742.93C4808 3765.2 4811.74 3779.2 4819.2 3793.47C4840.27 3833.6 4886 3854.67 4951.87 3854.67C4985.47 3854.67 5009.34 3850.27 5031.47 3839.87C5068.14 3822.8 5087.6 3794.67 5090 3755.33C5092 3719.87 5077.2 3689.2 5048.8 3670.27C5028.67 3656.93 5011.2 3650.53 4968.27 3640.67C4925.07 3630.67 4911.47 3624.53 4905.07 3611.87C4901.74 3605.33 4901.6 3594.53 4904.94 3587.33C4908.27 3580.27 4913.47 3575.6 4923.07 3571.2C4930 3567.87 4933.07 3567.33 4947.07 3566.93C4966.67 3566.27 4977.07 3568.53 4987.47 3575.6C4995.2 3580.93 5000.67 3588.93 5003.2 3598.53L5004.67 3604.67L5044.94 3605.07L5085.07 3605.33V3598.53C5085.07 3594.8 5083.87 3586.53 5082.4 3580.13C5072.54 3538.67 5037.6 3509.07 4987.2 3499.33C4974.14 3496.8 4941.34 3495.73 4928 3497.33Z" fill="black"/>
<path d="M6391.2 3497.34C6325.2 3505.74 6276.8 3545.2 6256.4 3607.34C6240.8 3655.2 6244.93 3726.8 6265.73 3768.14C6276.8 3789.74 6297.6 3814 6315.73 3826.27C6345.6 3846.4 6375.2 3855.07 6413.73 3855.07C6480.13 3855.07 6532.8 3824.14 6560.93 3768.54C6588.27 3714.27 6586.93 3628 6558 3577.2C6534.13 3535.2 6496.53 3508.54 6448.53 3499.34C6435.6 3496.8 6404 3495.74 6391.2 3497.34ZM6432 3572.14C6459.33 3577.74 6480 3599.47 6489.07 3632C6495.6 3655.74 6495.6 3693.87 6489.07 3719.2C6479.07 3758.14 6451.07 3781.34 6413.73 3781.34C6360.4 3781.34 6330.4 3738.54 6333.47 3667.34C6334.67 3638.54 6339.87 3619.87 6351.33 3602.4C6361.2 3587.34 6375.87 3576.8 6392.53 3572.8C6402.13 3570.54 6422.4 3570.14 6432 3572.14Z" fill="black"/>
<path d="M7221.07 3496.93C7190.8 3500.13 7159.73 3511.73 7138.27 3527.87C7093.33 3561.73 7070.67 3617.2 7073.47 3686C7075.6 3736.93 7090.13 3775.2 7119.2 3806.53C7156.93 3847.33 7221.6 3864.67 7283.07 3850.4C7344.8 3836.13 7388.27 3790.27 7402.53 3724.27C7406.13 3707.6 7407.47 3663.73 7405.07 3644.4C7399.2 3596.93 7378.53 3557.33 7346 3531.33C7332.8 3520.8 7307.87 3508 7291.07 3503.2C7270.4 3497.33 7241.33 3494.8 7221.07 3496.93ZM7266.93 3574.53C7297.87 3585.47 7316 3615.2 7319.73 3660.4C7323.2 3701.87 7313.73 3738.4 7294.4 3759.07C7281.6 3772.8 7266 3779.73 7245.07 3780.93C7221.33 3782.27 7202 3775.6 7187.2 3760.8C7177.87 3751.6 7172.27 3742.53 7167.07 3728C7157.6 3701.33 7157.33 3652.53 7166.4 3625.07C7175.6 3597.73 7194.53 3578.93 7219.2 3572.67C7230.67 3569.87 7256.53 3570.8 7266.93 3574.53Z" fill="black"/>
<path d="M4557.74 3502.93C4554.8 3510.8 4441.07 3848.67 4441.07 3849.6C4441.07 3850.13 4461.34 3850.67 4486.14 3850.67H4531.2L4542.54 3814.27L4553.87 3778L4614.54 3777.73L4675.07 3777.33L4686.4 3814L4697.74 3850.67H4743.34H4788.94L4760.14 3765.6C4744.4 3718.93 4717.87 3640.27 4701.34 3591.07L4671.07 3501.33H4614.67C4570.8 3501.33 4558.14 3501.73 4557.74 3502.93ZM4635.2 3650.67C4645.74 3684 4654.4 3711.73 4654.4 3712.27C4654.4 3712.93 4636.4 3713.33 4614.27 3713.33C4576.8 3713.33 4574.27 3713.2 4574.94 3710.93C4575.34 3709.73 4581.07 3691.2 4587.74 3670C4610.27 3598.13 4613.2 3589.2 4614.67 3589.6C4615.47 3589.87 4624.67 3617.33 4635.2 3650.67Z" fill="black"/>
<path d="M5133.07 3676V3850.67H5255.07H5377.07L5376.8 3816.27L5376.4 3782L5296.8 3781.6L5217.07 3781.33V3746V3710.67L5290.8 3710.4L5364.4 3710L5364.8 3675.6L5365.07 3641.33H5291.07H5217.07L5217.34 3605.6L5217.74 3570L5297.47 3569.6L5377.07 3569.33V3535.33V3501.33H5255.07H5133.07V3676Z" fill="black"/>
<path d="M5429.07 3676V3850.67H5544.4H5659.74V3816V3781.33H5587.07H5514.4V3641.33V3501.33H5471.74H5429.07V3676Z" fill="black"/>
<path d="M5806.4 3676V3850.67H5847.73H5889.07V3742.53C5889.07 3658.13 5889.47 3634.53 5890.67 3634.93C5891.6 3635.33 5911.07 3683.2 5933.87 3741.47L5975.47 3847.33L6002.13 3847.73L6028.8 3848L6046 3804.4C6055.6 3780.27 6074.4 3732.67 6087.87 3698.4C6101.87 3662.93 6113.07 3636 6114.13 3636C6115.33 3636 6115.73 3658.4 6115.73 3743.33V3850.67H6157.07H6198.4V3676V3501.33L6145.6 3501.6L6092.8 3502L6048.53 3609.6C6016.8 3687.2 6003.87 3717.33 6002.4 3717.33C6000.93 3717.33 5987.87 3687.2 5956.13 3609.6L5912 3502L5859.2 3501.6L5806.4 3501.33V3676Z" fill="black"/>
<path d="M6602.4 3535.33V3569.33H6655.73H6709.07V3710V3850.67H6750.4H6791.73V3710V3569.33H6845.07H6898.4V3535.33V3501.33H6750.4H6602.4V3535.33Z" fill="black"/>
<path d="M6939.73 3676V3850.67H6981.73H7023.73V3676V3501.33H6981.73H6939.73V3676Z" fill="black"/>
<path d="M7455.73 3676V3850.67H7498.4H7541.07V3750C7541.07 3693.6 7541.6 3649.33 7542.27 3649.33C7542.93 3649.33 7574.53 3694.67 7612.53 3749.87L7681.73 3850.53H7718.13L7754.4 3850.67V3676V3501.33H7711.73H7669.07V3602C7669.07 3657.33 7668.53 3702.67 7668 3702.67C7667.33 3702.67 7636 3657.47 7598.27 3602.13L7529.73 3501.47H7492.8L7455.73 3501.33V3676Z" fill="black"/>
<path d="M7910.4 3676V3850.67H7952.4H7994.4V3796.8V3743.07L8034.13 3742.27C8075.47 3741.47 8086.13 3740.27 8103.33 3734.53C8136.27 3723.73 8161.2 3701.2 8173.07 3671.47C8180.27 3653.6 8181.6 3645.47 8181.6 3621.33C8181.47 3598.27 8180.13 3590.4 8173.07 3571.73C8162.93 3544.8 8135.87 3519.47 8106.13 3509.2C8084.13 3501.73 8078.93 3501.33 7990.93 3501.33H7910.4V3676ZM8053.2 3570.67C8070 3573.87 8083.33 3583.87 8090.27 3598.53C8093.47 3605.33 8093.73 3607.47 8093.73 3622C8093.73 3636.53 8093.47 3638.67 8090.27 3645.47C8083.6 3659.47 8073.33 3668.13 8057.73 3672.8C8051.2 3674.67 8044.53 3675.2 8022.4 3675.2L7995.07 3675.33L7994.67 3622.27L7994.4 3569.33H8020.27C8034.4 3569.33 8049.33 3570 8053.2 3570.67Z" fill="black"/>
<path d="M8223.73 3676V3850.67H8266.4H8309.07V3790.67V3730.67L8330.53 3730.93L8351.87 3731.33L8383.2 3790C8400.4 3822.27 8415.07 3849.07 8415.6 3849.73C8416.13 3850.27 8437.07 3850.53 8462.13 3850.4L8507.6 3850L8471.73 3784L8435.87 3718.13L8440.13 3715.6C8452.93 3708 8463.07 3700.27 8469.07 3693.73C8482.13 3679.47 8491.2 3659.87 8494.53 3638.53C8496.67 3624.53 8495.33 3596.67 8491.87 3583.33C8480.53 3540.13 8446.53 3511.2 8397.73 3503.33C8388.13 3501.73 8369.47 3501.33 8304.8 3501.33H8223.73V3676ZM8370.8 3571.33C8395.6 3576.53 8407.73 3591.6 8407.73 3617.07C8407.73 3623.47 8407.07 3630.93 8406.4 3633.6C8404 3641.87 8396.93 3650.93 8389.2 3655.6C8377.87 3662.4 8367.73 3664 8336.53 3664H8309.07V3616.67V3569.33H8335.47C8353.07 3569.33 8364.67 3570 8370.8 3571.33Z" fill="black"/>
<path d="M8542.4 3676V3850.67H8584.4H8626.4V3676V3501.33H8584.4H8542.4V3676Z" fill="black"/>
<path d="M8672 3504.27C8673.07 3506 8696.93 3545.2 8724.93 3591.6L8775.87 3675.73L8721.87 3762.93L8667.87 3850L8715.33 3850.4C8741.47 3850.53 8763.47 3850.13 8764 3849.6C8764.67 3848.93 8779.6 3823.87 8797.2 3793.87C8814.8 3763.87 8829.87 3739.33 8830.67 3739.33C8831.47 3739.33 8846.8 3764.4 8864.8 3794.93L8897.47 3850.67H8946C8984.53 3850.67 8994.4 3850.27 8993.6 3848.93C8992.93 3848.13 8968.67 3809.07 8939.47 3762.13C8910.27 3715.33 8886.4 3676.53 8886.4 3675.87C8886.4 3675.2 8909.87 3636 8938.4 3588.53C8967.07 3541.2 8990.4 3502.13 8990.4 3501.87C8990.4 3501.6 8969.2 3501.33 8943.33 3501.33H8896.27L8864.27 3556.27C8846.53 3586.53 8831.6 3611.33 8830.93 3611.6C8830.27 3611.87 8815.33 3587.07 8797.73 3556.67L8765.73 3501.33H8717.87H8670.13L8672 3504.27Z" fill="black"/>
</svg>
